<svg width="65" height="49" viewBox="0 0 65 49" fill="none" xmlns="http://www.w3.org/2000/svg">
<path d="M63.6452 22.4929C63.0028 22.6832 26.5411 12.0341 5.75757 43.9545C5.67642 44.077 4.59767 42.2964 4.97678 41.7122C26.8772 7.74671 71.1595 20.2168 63.6452 22.4929Z" fill="#25524B"/>
<path d="M11.6864 24.0383C6.97885 32.0588 5.318 42.9045 5.04354 42.2635C11.6142 38.5034 18.3911 34.5869 24.936 38.7344C25.144 38.8658 25.5572 40.4181 25.3232 40.4167C16.9914 40.4222 19.1564 37.6543 5.76156 44.9572C4.99036 45.3773 0.987878 29.931 11.1889 22.393C11.3633 22.2643 11.838 23.7801 11.6864 24.0383Z" fill="#25524B"/>
</svg>
