<svg width="115" height="72" viewBox="0 0 115 72" fill="none" xmlns="http://www.w3.org/2000/svg">
<path d="M94.6286 60.011C102.617 55.6728 106.052 47.6179 107.664 39.9819C109.476 31.3626 110.273 21.2031 104.111 13.9402C99.3635 8.35426 91.3166 5.5184 83.3904 5.36099C74.661 5.18707 66.4154 8.55598 60.1046 13.9088C53.6179 19.416 49.1812 26.7856 47.2122 34.3927C46.0256 38.9924 45.6308 43.9537 47.3896 48.4003C48.2288 50.4848 49.5859 53.056 51.9542 54.0851C54.8951 55.3687 57.8392 53.4358 59.7452 51.494C62.984 48.1869 64.958 43.5697 66.2621 39.4585C67.6673 35.0121 68.0948 30.1751 66.264 25.8654C63.2373 18.8061 54.4112 14.9762 45.9739 15.2238C35.5671 15.5075 26.5278 21.8389 20.9428 29.2642C14.5321 37.763 12.3817 48.0335 11.2038 57.8642C10.9721 59.7642 7.62588 59.3756 7.857 57.4705C9.12164 47.0857 11.5374 36.4243 18.298 27.4526C24.0724 19.7893 33.4261 13.3278 44.035 12.4197C53.2455 11.6434 63.0494 15.0277 67.6738 22.0955C73.2161 30.5765 69.7001 41.9392 64.1569 50.057C61.9621 53.2748 58.2551 57.0022 53.5858 56.7825C48.5077 56.5451 45.7588 51.8018 44.6015 48.0473C41.7902 38.9515 45.5328 28.3977 51.1266 20.4072C56.3038 13.0207 64.2679 6.71558 73.8937 4.34041C78.237 3.26728 82.7589 2.98984 87.1712 3.52577C91.5834 4.0617 95.7893 5.39924 99.5206 7.45315C110.333 13.548 112.033 24.8237 110.45 35.4519C109.026 44.9068 105.406 55.5485 95.2494 60.7162C94.6946 61.0033 94.0677 60.345 94.6402 60.0096L94.6286 60.011Z" fill="#FF9A23"/>
<path d="M8.05362 60.5417C11.6198 58.6147 15.1356 56.3113 17.8855 53.5809L19.6707 55.1255C16.3114 57.2211 12.8292 59.182 9.40638 61.1928C8.70403 61.6068 7.50719 61.4997 7.21961 60.7472C6.0537 57.5642 5.16748 54.3058 4.56765 50.9968C4.30224 49.4063 7.26964 49.068 7.57503 50.6362C8.14225 53.7256 8.9214 56.7778 9.90875 59.7784L7.72199 59.3328C11.169 57.3454 14.5813 55.2918 18.096 53.3798C18.3804 53.2148 18.7253 53.1433 19.0599 53.1802C19.3946 53.217 19.6936 53.3594 19.8958 53.578C20.098 53.7966 20.1879 54.075 20.1473 54.3561C20.1066 54.6371 19.9384 54.8996 19.6771 55.0896C16.4008 57.6507 12.7056 59.8111 8.71259 61.5003C8.0062 61.7916 7.38081 60.8906 8.06258 60.5274L8.05362 60.5417Z" fill="#FF9A23"/>
</svg>
