<svg width="22" height="19" viewBox="0 0 22 19" fill="none" xmlns="http://www.w3.org/2000/svg">
<path d="M17 18.2001C16.6835 18.2001 16.3742 18.1063 16.1111 17.9305C15.848 17.7546 15.6429 17.5048 15.5218 17.2124C15.4007 16.92 15.369 16.5983 15.4307 16.288C15.4925 15.9776 15.6449 15.6925 15.8686 15.4687C16.0924 15.245 16.3775 15.0926 16.6879 15.0308C16.9982 14.9691 17.3199 15.0008 17.6123 15.1219C17.9047 15.243 18.1545 15.4481 18.3304 15.7112C18.5062 15.9743 18.6 16.2836 18.6 16.6001C18.6 17.0244 18.4314 17.4314 18.1314 17.7315C17.8313 18.0315 17.4243 18.2001 17 18.2001ZM17 15.8001C16.8418 15.8001 16.6871 15.847 16.5555 15.9349C16.424 16.0228 16.3214 16.1478 16.2609 16.294C16.2003 16.4401 16.1845 16.601 16.2154 16.7562C16.2462 16.9114 16.3224 17.0539 16.4343 17.1658C16.5462 17.2777 16.6887 17.3539 16.8439 17.3847C16.9991 17.4156 17.16 17.3998 17.3061 17.3392C17.4523 17.2787 17.5773 17.1761 17.6652 17.0446C17.7531 16.913 17.8 16.7583 17.8 16.6001C17.8 16.3879 17.7157 16.1844 17.5657 16.0344C17.4157 15.8844 17.2122 15.8001 17 15.8001ZM9.8 18.2001C9.48355 18.2001 9.17421 18.1063 8.91109 17.9305C8.64797 17.7546 8.44289 17.5048 8.32179 17.2124C8.20069 16.92 8.16901 16.5983 8.23074 16.288C8.29248 15.9776 8.44487 15.6925 8.66863 15.4687C8.89239 15.245 9.17749 15.0926 9.48785 15.0308C9.79822 14.9691 10.1199 15.0008 10.4123 15.1219C10.7047 15.243 10.9545 15.4481 11.1304 15.7112C11.3062 15.9743 11.4 16.2836 11.4 16.6001C11.4 17.0244 11.2314 17.4314 10.9314 17.7315C10.6313 18.0315 10.2243 18.2001 9.8 18.2001ZM9.8 15.8001C9.64177 15.8001 9.4871 15.847 9.35554 15.9349C9.22398 16.0228 9.12145 16.1478 9.0609 16.294C9.00035 16.4401 8.9845 16.601 9.01537 16.7562C9.04624 16.9114 9.12243 17.0539 9.23431 17.1658C9.3462 17.2777 9.48874 17.3539 9.64393 17.3847C9.79911 17.4156 9.95997 17.3998 10.1061 17.3392C10.2523 17.2787 10.3773 17.1761 10.4652 17.0446C10.5531 16.913 10.6 16.7583 10.6 16.6001C10.6 16.3879 10.5157 16.1844 10.3657 16.0344C10.2157 15.8844 10.0122 15.8001 9.8 15.8001ZM18.264 14.2001H8.664C8.44314 14.2004 8.2284 14.1276 8.05328 13.993C7.87817 13.8584 7.75254 13.6696 7.696 13.4561L4.728 1.5441C4.71588 1.50256 4.69062 1.46606 4.656 1.4401C4.62138 1.41413 4.57927 1.4001 4.536 1.4001H1V0.600099H4.536C4.75686 0.599806 4.9716 0.672639 5.14672 0.80723C5.32183 0.941821 5.44746 1.1306 5.504 1.3441L6.12 3.8001H19.992C20.1469 3.7943 20.3009 3.82458 20.4421 3.88853C20.5833 3.95249 20.7076 4.04837 20.8054 4.16862C20.9031 4.28887 20.9716 4.43019 21.0054 4.58143C21.0391 4.73267 21.0373 4.88969 21 5.0401L19.24 13.4001C19.1969 13.6267 19.0755 13.8309 18.8971 13.9772C18.7187 14.1234 18.4946 14.2023 18.264 14.2001ZM6.312 4.6001L8.472 13.2561C8.48412 13.2976 8.50938 13.3341 8.544 13.3601C8.57862 13.3861 8.62073 13.4001 8.664 13.4001H18.264C18.3083 13.3996 18.3512 13.3844 18.386 13.3569C18.4207 13.3294 18.4454 13.2911 18.456 13.2481L20.2 4.8721C20.2134 4.84471 20.2204 4.8146 20.2204 4.7841C20.2204 4.75359 20.2134 4.72349 20.2 4.6961C20.1836 4.66725 20.1605 4.64276 20.1326 4.62467C20.1048 4.60657 20.073 4.59541 20.04 4.5921L6.312 4.6001Z" fill="#4C5741" stroke="#4C5741" stroke-width="0.5"/>
</svg>
