<svg width="59" height="60" viewBox="0 0 59 60" fill="none" xmlns="http://www.w3.org/2000/svg">
<path d="M29.5013 59.092C29.1758 59.092 28.8633 58.9628 28.6332 58.7327C28.403 58.5025 28.2738 58.1903 28.2738 57.8648V1.22727C28.2738 0.901783 28.403 0.589749 28.6332 0.359593C28.8633 0.129437 29.1758 0 29.5013 0C29.8268 0 30.1388 0.129437 30.369 0.359593C30.5991 0.589749 30.7283 0.901783 30.7283 1.22727V57.8648C30.7283 58.1903 30.5991 58.5025 30.369 58.7327C30.1388 58.9628 29.8268 59.092 29.5013 59.092Z" fill="#25524B" fill-opacity="0.6"/>
<path d="M57.8195 30.7731H1.18048C0.863361 30.761 0.563184 30.6266 0.343118 30.3979C0.123052 30.1693 0 29.8641 0 29.5467C0 29.2294 0.123052 28.9244 0.343118 28.6957C0.563184 28.4671 0.863361 28.3327 1.18048 28.3206H57.8195C58.1366 28.3327 58.4368 28.4671 58.6569 28.6957C58.8769 28.9244 59 29.2294 59 29.5467C59 29.8641 58.8769 30.1693 58.6569 30.3979C58.4368 30.6266 58.1366 30.761 57.8195 30.7731Z" fill="#25524B" fill-opacity="0.6"/>
<path d="M9.47407 50.796C9.23162 50.7955 8.99493 50.7232 8.79354 50.5882C8.59216 50.4532 8.43538 50.2616 8.34279 50.0375C8.2502 49.8135 8.22604 49.5669 8.27337 49.3291C8.32071 49.0913 8.43724 48.8731 8.60858 48.7015L48.6585 8.65187C48.8909 8.43385 49.1991 8.31464 49.5178 8.31974C49.8364 8.32484 50.1404 8.45376 50.3657 8.67911C50.5911 8.90446 50.72 9.20859 50.7251 9.52724C50.7302 9.84589 50.611 10.1541 50.3929 10.3866L10.3435 50.4345C10.2298 50.5493 10.0942 50.6404 9.94503 50.7025C9.79582 50.7646 9.63568 50.7963 9.47407 50.796Z" fill="#25524B" fill-opacity="0.6"/>
<path d="M49.5171 50.796C49.3562 50.796 49.1968 50.7642 49.0483 50.7024C48.8998 50.6407 48.7646 50.5502 48.6511 50.4362L8.6017 10.3883C8.38368 10.1559 8.26447 9.84762 8.26957 9.52897C8.27466 9.21032 8.40359 8.90619 8.62894 8.68084C8.85429 8.4555 9.15864 8.32679 9.47729 8.32169C9.79594 8.31659 10.1037 8.43558 10.3362 8.65361L50.3861 48.7033C50.5575 48.8749 50.6744 49.0936 50.7217 49.3315C50.769 49.5695 50.7447 49.816 50.6519 50.0402C50.559 50.2643 50.4019 50.456 50.2002 50.5909C49.9986 50.7257 49.7614 50.7976 49.5188 50.7978L49.5171 50.796Z" fill="#25524B" fill-opacity="0.6"/>
</svg>
